<svg id="Layer_1" data-name="Layer 1" xmlns="http://www.w3.org/2000/svg" viewBox="0 0 1000 1000">
  <rect width="1000" height="1000"/>
  <path d="M730.07,422.09a91.61,91.61,0,0,0-28.75-18.86,200.45,200.45,0,0,0-56.48-110c-78.75-78.75-206.89-78.75-285.64,0a201.53,201.53,0,0,0-52,89.56,30.07,30.07,0,0,0-31.12,30v78.92a20,20,0,0,0-12,18.32v44.1a20,20,0,0,0-18,19.89V716a30,30,0,0,0,30,30h92a30,30,0,0,0,30-30V609.29a199.47,199.47,0,0,0,74,26.56V686H467.2A50.11,50.11,0,0,0,417.14,736a10,10,0,0,0,10,10H576.91a10,10,0,0,0,10-10A50.11,50.11,0,0,0,536.85,686H532V635.84a199.45,199.45,0,0,0,78.31-29.22v99.91A39.55,39.55,0,0,0,649.83,746h29.5a39.55,39.55,0,0,0,39.5-39.51V588.76l29.73-60.32A91.33,91.33,0,0,0,730.07,422.09Zm-434-9.27A10,10,0,0,1,310.77,404l32,17.15A10,10,0,0,1,348,430v60.1h-52Zm-12,97.24h76v44h-76Zm94,206a10,10,0,0,1-10,10h-92a10,10,0,0,1-10-10v-142H378V716ZM536.85,706A30.11,30.11,0,0,1,565.2,726H438.85A30.11,30.11,0,0,1,467.2,706h69.65ZM492,686V637.8c3.29.16,6.6.25,9.93.25l2.74,0c2.45,0,4.89-.12,7.32-.23V686ZM398,585.44V574.05a20,20,0,0,0-18-19.89v-44.1a20,20,0,0,0-12-18.32V430a30,30,0,0,0-15.83-26.44l-26.13-14a181.48,181.48,0,0,1,47.27-82.13c70.95-70.95,186.4-70.95,257.35,0a180.53,180.53,0,0,1,49.16,89.93,92.8,92.8,0,0,0-13.48-1,91.6,91.6,0,0,0-15.22,1.29,154,154,0,0,0-281.25-40.69,10,10,0,0,0,17.15,10.29A133.82,133.82,0,0,1,539.2,307.38l-73.79,73.79a10,10,0,0,0,14.14,14.14l80.11-80.11A135.06,135.06,0,0,1,594.29,339L465.81,467.52A10,10,0,1,0,480,481.66L607.76,353.85A132.81,132.81,0,0,1,631.91,403a91.25,91.25,0,0,0-29.21,19.06l-1.14,1.1a91.71,91.71,0,0,0-19.49,104.24l5.45,11.81a134,134,0,0,1-158.09,9.46,10,10,0,1,0-10.85,16.8,154,154,0,0,0,177.57-7.57l12,26C546.21,628.44,460.7,629.16,398,585.44ZM698.83,706.53A19.53,19.53,0,0,1,679.33,726h-29.5a19.53,19.53,0,0,1-19.51-19.51V643.91h68.51v62.62Zm0-82.62H630.32V596.25h68.51ZM730.62,519.6,702.7,576.25h-5.13V535.19a10,10,0,0,0-20,0v41.06h-51l-26.39-57.2a71.68,71.68,0,0,1,15.24-81.49l1.13-1.1a71.61,71.61,0,0,1,114,83.14Z" fill="#fff"/>
</svg>
