<svg id="Layer_1" data-name="Layer 1" xmlns="http://www.w3.org/2000/svg" viewBox="0 0 1000 1000">
  <path d="M767.67,487.08H636.91v-98.7l30.36,22.48a8.48,8.48,0,0,0,11.06-.82l70.82-70.82a8.5,8.5,0,0,0,0-12l-99.29-99.3A60.82,60.82,0,0,0,606.59,210H393.13a60.81,60.81,0,0,0-43.26,17.92l-99.29,99.3a8.49,8.49,0,0,0,0,12l33.84,33.83c-25.56,15.87-23.56,50.27-18.93,75.9l-27.27,23.59a8.53,8.53,0,0,0-2.94,6.43v109.2a8.49,8.49,0,0,0,8.5,8.49H315.4a8.49,8.49,0,0,0,8.49-8.49V479a8.5,8.5,0,0,0-2.94-6.43l-35.81-31a8.37,8.37,0,0,0-3.92-1.91c-3.57-23.76-2.35-45.53,15.76-54L321.41,410a8.48,8.48,0,0,0,11.06.82l30.34-22.48v55.14a8.5,8.5,0,0,0,17,0v-72a8.49,8.49,0,0,0-13.55-6.83l-38,28.16L268.6,333.22l93.28-93.3A43.9,43.9,0,0,1,393.13,227H408.3a92,92,0,0,0,183.13,0h15.16a43.91,43.91,0,0,1,31.26,12.94l93.28,93.3-59.64,59.64-38-28.16a8.49,8.49,0,0,0-13.54,6.83V487.08h-130a8.49,8.49,0,0,0-8.49,8.49v68.55H379.8V477.49a8.5,8.5,0,0,0-17,0v95.13a8.5,8.5,0,0,0,8.5,8.49H481.42V773.33a8.49,8.49,0,0,0,8.49,8.49H602a8.49,8.49,0,0,0,8.42-7.37L628.8,636.78l18.39,137.67a8.49,8.49,0,0,0,8.41,7.37H767.67a8.49,8.49,0,0,0,8.49-8.49V653.13a8.49,8.49,0,1,0-17,0V764.84H663L637.21,571.49a8.49,8.49,0,0,0-16.83,0L594.56,764.84H498.4V545H759.18v74.14a8.49,8.49,0,0,0,17,0V495.57A8.49,8.49,0,0,0,767.67,487.08ZM306.9,579.67H252.27V482.85L269.47,468c1.06,4.75,2,9.25,2,11a8.49,8.49,0,0,0,17,0c0-3.39-.92-8-2.27-14l20.7,17.91Zm193-286.2A75.08,75.08,0,0,1,425.37,227h149A75.07,75.07,0,0,1,499.86,293.47Zm198.65,210.6v24H559.08v-24Zm-200.11,0h43.69v24H498.4Zm217.09,24v-24h43.69v24Z"/>
  <path d="M484.37,252.47h31a8.5,8.5,0,0,0,0-17h-31a8.5,8.5,0,0,0,0,17Z"/>
</svg>
