<svg id="Layer_1" data-name="Layer 1" xmlns="http://www.w3.org/2000/svg" viewBox="0 0 1000 1000">
  <rect width="1000" height="1000"/>
  <g>
    <path d="M616.66,697.36a76.13,76.13,0,0,1-74.46-61L530.13,576l-1.25-.5a49.83,49.83,0,0,0-37.34,0l-1.25.5-12.07,60.35a76.13,76.13,0,0,1-74.46,61H334.09a76.14,76.14,0,0,1-74.46-61l-13.78-68.9a44.56,44.56,0,0,1,4.62-30.13l.17-.3,48.94-210.2A44.64,44.64,0,0,1,342.83,293a44.86,44.86,0,0,1,19.92,4.73l27.76,13.88a13.19,13.19,0,0,1-11.79,23.59L351,321.3a18.28,18.28,0,0,0-8.13-1.93A18.2,18.2,0,0,0,325.21,333L283,514.49l3.38-.24c1.24-.09,2.26-.13,3.22-.13H448.31a44.64,44.64,0,0,1,42.59,31.42l.68,2.2,2.25-.49a76.26,76.26,0,0,1,32.76,0l2.25.49.67-2.2a44.64,44.64,0,0,1,42.6-31.42H730.87c1,0,2,0,3.21.13l3.38.24-42.24-181.4a18.21,18.21,0,0,0-17.63-13.72,18.34,18.34,0,0,0-8.13,1.93L641.7,335.18a13,13,0,0,1-5.89,1.4,13.2,13.2,0,0,1-5.91-25l27.77-13.88A44.82,44.82,0,0,1,677.59,293a44.64,44.64,0,0,1,43.23,33.78l49,210.23.17.3a44.5,44.5,0,0,1,4.61,30.13l-13.77,68.9a76.14,76.14,0,0,1-74.46,61ZM572.11,540.49a18.19,18.19,0,0,0-17.83,21.76l13.78,68.9A49.68,49.68,0,0,0,616.65,671h69.67a49.69,49.69,0,0,0,48.6-39.83l13.78-68.9a18.19,18.19,0,0,0-17.83-21.76Zm-282.56,0a18.18,18.18,0,0,0-17.83,21.76l13.78,68.9A49.68,49.68,0,0,0,334.09,671h69.67a49.7,49.7,0,0,0,48.6-39.83l13.78-68.9a18.19,18.19,0,0,0-17.83-21.76Z" fill="#fff"/>
    <path d="M677.59,295.48a42.13,42.13,0,0,1,40.81,31.9l0,.15,48.83,209.69.15.67.33.6a42,42,0,0,1,4.36,28.44l-13.78,68.9a73.63,73.63,0,0,1-72,59H616.66a73.63,73.63,0,0,1-72-59l-11.81-59-.52-2.64-2.5-1a52.37,52.37,0,0,0-39.22,0l-2.5,1-.52,2.64-11.81,59a73.64,73.64,0,0,1-72,59H334.09a73.63,73.63,0,0,1-72-59l-13.78-68.9a42,42,0,0,1,4.35-28.44l.33-.6.16-.67L302,327.57v-.07l0-.07v-.07a42,42,0,0,1,59.61-27.42l27.76,13.89a10.68,10.68,0,1,1-9.55,19.11l-27.77-13.88a20.83,20.83,0,0,0-9.25-2.19,20.73,20.73,0,0,0-20,15.54v.11l-41.47,178.1-1.54,6.61,6.76-.49c1.18-.08,2.14-.12,3-.12H448.31a42.14,42.14,0,0,1,40.2,29.66l1.36,4.4,4.49-1a73.84,73.84,0,0,1,31.69,0l4.5,1,1.35-4.4a42.15,42.15,0,0,1,40.21-29.66H730.87c.89,0,1.86,0,3,.12l6.77.49-1.54-6.61-41.47-178.1v0l0-.06a20.71,20.71,0,0,0-20-15.54,20.86,20.86,0,0,0-9.25,2.19l-27.76,13.88A10.68,10.68,0,1,1,631,313.83l27.77-13.89a42.26,42.26,0,0,1,18.8-4.46m-60.94,378h69.67a52.2,52.2,0,0,0,51-41.84l13.78-68.9A20.69,20.69,0,0,0,730.87,538H572.11a20.68,20.68,0,0,0-20.28,24.75l13.78,68.9a52.18,52.18,0,0,0,51,41.84m-282.56,0h69.67a52.2,52.2,0,0,0,51.05-41.84l13.78-68.9A20.7,20.7,0,0,0,448.31,538H289.55a20.7,20.7,0,0,0-20.29,24.75L283,631.64a52.2,52.2,0,0,0,51,41.84m343.5-383a47.05,47.05,0,0,0-21,5l-27.76,13.88a15.69,15.69,0,1,0,14,28.07l27.76-13.89a15.69,15.69,0,0,1,22.21,10.13l41.47,178.1c-1.13-.08-2.26-.14-3.39-.14H572.11a47.1,47.1,0,0,0-45,33.19,78.72,78.72,0,0,0-33.84,0,47.1,47.1,0,0,0-45-33.19H289.55c-1.14,0-2.27.06-3.39.14l41.47-178.1a15.67,15.67,0,0,1,22.2-10.13l27.77,13.89a15.69,15.69,0,0,0,14-28.07l-27.77-13.88a47,47,0,0,0-66.69,30.68,2.33,2.33,0,0,0-.07.25L248.28,536.08a46.85,46.85,0,0,0-4.88,31.83l13.78,68.9a78.65,78.65,0,0,0,76.91,63.05h69.67a78.65,78.65,0,0,0,76.91-63.05l11.81-59a47.41,47.41,0,0,1,35.46,0l11.81,59a78.64,78.64,0,0,0,76.91,63.05h69.67a78.66,78.66,0,0,0,76.91-63.05L777,567.91a47,47,0,0,0-4.88-31.83L723.31,326.4l-.06-.25a47.14,47.14,0,0,0-45.66-35.67Zm-60.94,378a47.17,47.17,0,0,1-46.14-37.83l-13.78-68.89A15.7,15.7,0,0,1,572.11,543H730.87a15.7,15.7,0,0,1,15.38,18.77l-13.78,68.89a47.18,47.18,0,0,1-46.15,37.83Zm-282.56,0A47.18,47.18,0,0,1,288,630.65l-13.78-68.89A15.7,15.7,0,0,1,289.55,543H448.31a15.7,15.7,0,0,1,15.38,18.77l-13.78,68.89a47.19,47.19,0,0,1-46.15,37.83Z"/>
  </g>
</svg>
