<svg data-name="Layer 1" xmlns="http://www.w3.org/2000/svg" viewBox="0 0 1000 1000"><path d="M767.67 487.08H636.91v-98.7l30.36 22.48a8.48 8.48 0 0011.06-.82l70.82-70.82a8.5 8.5 0 000-12l-99.29-99.3A60.82 60.82 0 00606.59 210H393.13a60.81 60.81 0 00-43.26 17.92l-99.29 99.3a8.49 8.49 0 000 12l33.84 33.83c-25.56 15.87-23.56 50.27-18.93 75.9l-27.27 23.59a8.53 8.53 0 00-2.94 6.43v109.2a8.49 8.49 0 008.5 8.49h71.62a8.49 8.49 0 008.49-8.49V479a8.5 8.5 0 00-2.94-6.43l-35.81-31a8.37 8.37 0 00-3.92-1.91c-3.57-23.76-2.35-45.53 15.76-54L321.41 410a8.48 8.48 0 0011.06.82l30.34-22.48v55.14a8.5 8.5 0 0017 0v-72a8.49 8.49 0 00-13.55-6.83l-38 28.16-59.66-59.59 93.28-93.3A43.9 43.9 0 01393.13 227h15.17a92 92 0 00183.13 0h15.16a43.91 43.91 0 0131.26 12.94l93.28 93.3-59.64 59.64-38-28.16a8.49 8.49 0 00-13.54 6.83v115.53h-130a8.49 8.49 0 00-8.49 8.49v68.55H379.8v-86.63a8.5 8.5 0 00-17 0v95.13a8.5 8.5 0 008.5 8.49h110.12v192.22a8.49 8.49 0 008.49 8.49H602a8.49 8.49 0 008.42-7.37l18.38-137.67 18.39 137.67a8.49 8.49 0 008.41 7.37h112.07a8.49 8.49 0 008.49-8.49v-120.2a8.49 8.49 0 10-17 0v111.71H663l-25.79-193.35a8.49 8.49 0 00-16.83 0l-25.82 193.35H498.4V545h260.78v74.14a8.49 8.49 0 0017 0V495.57a8.49 8.49 0 00-8.51-8.49zM306.9 579.67h-54.63v-96.82l17.2-14.85c1.06 4.75 2 9.25 2 11a8.49 8.49 0 0017 0c0-3.39-.92-8-2.27-14l20.7 17.91zm193-286.2A75.08 75.08 0 01425.37 227h149a75.07 75.07 0 01-74.51 66.47zm198.65 210.6v24H559.08v-24zm-200.11 0h43.69v24H498.4zm217.09 24v-24h43.69v24z"/><path d="M484.37 252.47h31a8.5 8.5 0 000-17h-31a8.5 8.5 0 000 17z"/></svg>