<svg data-name="Layer 1" xmlns="http://www.w3.org/2000/svg" viewBox="0 0 1000 1000"><path d="M0 0h1000v1000H0z"/><path d="M616.66 697.36a76.13 76.13 0 01-74.46-61L530.13 576l-1.25-.5a49.83 49.83 0 00-37.34 0l-1.25.5-12.07 60.35a76.13 76.13 0 01-74.46 61h-69.67a76.14 76.14 0 01-74.46-61l-13.78-68.9a44.56 44.56 0 014.62-30.13l.17-.3 48.94-210.2A44.64 44.64 0 01342.83 293a44.86 44.86 0 0119.92 4.73l27.76 13.88a13.19 13.19 0 01-11.79 23.59L351 321.3a18.28 18.28 0 00-8.13-1.93A18.2 18.2 0 00325.21 333L283 514.49l3.38-.24c1.24-.09 2.26-.13 3.22-.13h158.71a44.64 44.64 0 0142.59 31.42l.68 2.2 2.25-.49a76.26 76.26 0 0132.76 0l2.25.49.67-2.2a44.64 44.64 0 0142.6-31.42h158.76c1 0 2 0 3.21.13l3.38.24-42.24-181.4a18.21 18.21 0 00-17.63-13.72 18.34 18.34 0 00-8.13 1.93l-27.76 13.88a13 13 0 01-5.89 1.4 13.2 13.2 0 01-5.91-25l27.77-13.88a44.82 44.82 0 0119.92-4.7 44.64 44.64 0 0143.23 33.78l49 210.23.17.3a44.5 44.5 0 014.61 30.13l-13.77 68.9a76.14 76.14 0 01-74.46 61zm-44.55-156.87a18.19 18.19 0 00-17.83 21.76l13.78 68.9A49.68 49.68 0 00616.65 671h69.67a49.69 49.69 0 0048.6-39.83l13.78-68.9a18.19 18.19 0 00-17.83-21.76zm-282.56 0a18.18 18.18 0 00-17.83 21.76l13.78 68.9A49.68 49.68 0 00334.09 671h69.67a49.7 49.7 0 0048.6-39.83l13.78-68.9a18.19 18.19 0 00-17.83-21.76z" fill="#fff"/><path d="M677.59 295.48a42.13 42.13 0 0140.81 31.9v.15l48.83 209.69.15.67.33.6a42 42 0 014.36 28.44l-13.78 68.9a73.63 73.63 0 01-72 59h-69.63a73.63 73.63 0 01-72-59l-11.81-59-.52-2.64-2.5-1a52.37 52.37 0 00-39.22 0l-2.5 1-.52 2.64-11.81 59a73.64 73.64 0 01-72 59h-69.69a73.63 73.63 0 01-72-59l-13.78-68.9a42 42 0 014.35-28.44l.33-.6.16-.67L302 327.57v-.21a42 42 0 0159.61-27.42l27.76 13.89a10.68 10.68 0 11-9.55 19.11l-27.77-13.88a20.83 20.83 0 00-9.25-2.19 20.73 20.73 0 00-20 15.54v.11l-41.47 178.1-1.54 6.61 6.76-.49c1.18-.08 2.14-.12 3-.12h158.76a42.14 42.14 0 0140.2 29.66l1.36 4.4 4.49-1a73.84 73.84 0 0131.69 0l4.5 1 1.35-4.4a42.15 42.15 0 0140.21-29.66h158.76c.89 0 1.86 0 3 .12l6.77.49-1.54-6.61-41.47-178.1v-.06a20.71 20.71 0 00-20-15.54 20.86 20.86 0 00-9.25 2.19l-27.76 13.88a10.68 10.68 0 11-9.62-19.16l27.77-13.89a42.26 42.26 0 0118.8-4.46m-60.94 378h69.67a52.2 52.2 0 0051-41.84l13.78-68.9A20.69 20.69 0 00730.87 538H572.11a20.68 20.68 0 00-20.28 24.75l13.78 68.9a52.18 52.18 0 0051 41.84m-282.56 0h69.67a52.2 52.2 0 0051.05-41.84l13.78-68.9A20.7 20.7 0 00448.31 538H289.55a20.7 20.7 0 00-20.29 24.75L283 631.64a52.2 52.2 0 0051 41.84m343.5-383a47.05 47.05 0 00-21 5l-27.76 13.88a15.69 15.69 0 1014 28.07l27.76-13.89a15.69 15.69 0 0122.21 10.13l41.47 178.1c-1.13-.08-2.26-.14-3.39-.14H572.11a47.1 47.1 0 00-45 33.19 78.72 78.72 0 00-33.84 0 47.1 47.1 0 00-45-33.19H289.55c-1.14 0-2.27.06-3.39.14l41.47-178.1a15.67 15.67 0 0122.2-10.13l27.77 13.89a15.69 15.69 0 0014-28.07l-27.77-13.88a47 47 0 00-66.69 30.68 2.33 2.33 0 00-.07.25l-48.79 209.67a46.85 46.85 0 00-4.88 31.83l13.78 68.9a78.65 78.65 0 0076.91 63.05h69.67a78.65 78.65 0 0076.91-63.05l11.81-59a47.41 47.41 0 0135.46 0l11.81 59a78.64 78.64 0 0076.91 63.05h69.67a78.66 78.66 0 0076.91-63.05l13.76-68.9a47 47 0 00-4.88-31.83L723.31 326.4l-.06-.25a47.14 47.14 0 00-45.66-35.67zm-60.94 378a47.17 47.17 0 01-46.14-37.83l-13.78-68.89A15.7 15.7 0 01572.11 543h158.76a15.7 15.7 0 0115.38 18.77l-13.78 68.89a47.18 47.18 0 01-46.15 37.83zm-282.56 0a47.18 47.18 0 01-46-37.83l-13.78-68.89A15.7 15.7 0 01289.55 543h158.76a15.7 15.7 0 0115.38 18.77l-13.78 68.89a47.19 47.19 0 01-46.15 37.83z"/></svg>