<svg data-name="Layer 1" xmlns="http://www.w3.org/2000/svg" viewBox="0 0 1000 1000"><path d="M377.24 413.78l38.51-12.25 5.49-1.75-8.47-3.44a182.17 182.17 0 0023.58 37c7.69 9.24 17.08 18.22 28.26 23 5.89 2.54 12.16 4.21 18.64 3.7l-7.23-5.5c2.6 11.67 5.27 23.36 8.82 34.79 2.16 7 4.5 14.46 9.19 20.2a11.14 11.14 0 0016.83 1c4.68-4.62 6.74-11.92 8.55-18 3.67-12.39 6.07-25.18 8.43-37.88l-5.24 5.24c23.08-7.16 46.89-19.41 58-42.05a70.38 70.38 0 006.85-25.28l-9.45 7.22q23.21 5.7 46.25 12l-5.25-9.22-2.65 16.53-6.3 39.3L602.6 505l-6.15 38.4-1.84 11.45a38.46 38.46 0 00-.85 5.8c0 5.35.56 10.75.84 16.09l1.06 20a17 17 0 001.35 6.13q2.38 5.72 4.78 11.43 9.6 22.86 19.28 45.67 13 30.69 26.25 61.29 13.83 32 28 63.77 3.2 7.14 6.43 14.27l4.49-11a650.21 650.21 0 01-73.29 24q-17.6 4.54-35.48 7.88-9 1.65-18 3l-4 .56c1.6-.22-.61.07-1 .12l-2.32.3q-4.49.55-9 1a427.43 427.43 0 01-71 1.45q-9.12-.57-18.21-1.53-4.42-.47-8.82-1l-2.38-.31c-.89-.11.17 0 .29 0l-1-.14c-1.6-.22-3.19-.44-4.78-.68q-18.58-2.76-36.92-7A571.94 571.94 0 01324 792.27q-5-1.93-10-3.95l4.49 11q17.47-39.68 35.33-79.17 14.33-31.7 28.85-63.28 9.46-20.55 19-41.06 2.31-5 4.63-9.9c.3-.64.61-1.28.9-1.92a13.41 13.41 0 001.17-5.11l1.87-36.55a22.93 22.93 0 00-.58-5.41l-1.67-9.44-6.2-34.79-8-44.7-7.17-40.27-3.94-22.15-.19-1c-.69-3.87-5.62-6.41-9.22-5.24-4.16 1.35-6 5.08-5.24 9.23l4.12 23.18 9.1 51.09 9.37 52.66c1.62 9.08 3.11 18.2 4.85 27.27.25 1.25-.08-2.29-.21-1.61a16 16 0 00-.12 2.2l-.56 10.9-1.24 24.26-.08 1.55 1-3.78q-8.47 18-16.79 36.05-21.18 45.79-41.89 91.81-15.19 33.76-30.14 67.64c-2.11 4.79-.36 9.07 4.49 11a594.44 594.44 0 0077.72 25.52 477.87 477.87 0 0075.14 12.61 428.34 428.34 0 0071.81.05 487.76 487.76 0 0072.94-11.83 619.15 619.15 0 0073.28-22.74q4.73-1.77 9.41-3.61c4.83-1.88 6.64-6.28 4.49-11-9.34-20.55-18.44-41.21-27.46-61.9q-13.63-31.32-27-62.76-5.88-13.79-11.71-27.58c-.85-2-1.7-4-2.54-6l-1.26-3c-.52-1.24.62 1.46.1.24l-.72-1.72q-2.19-5.16-4.36-10.34-3.22-7.65-6.43-15.32a54.72 54.72 0 00-2.8-6.7c-.51-.87.21 2.74.2 1.65 0-.68-.07-1.36-.11-2.05l-.46-8.75-1.17-21.94-.19-3.47c0-.31.11-1.27-.08-1.54s-.42 2.74-.23 1.72c.05-.26.08-.53.13-.8l1.31-8.18 5.5-34.33 7.36-45.95 6.77-42.21 3.72-23.21.17-1.09c.64-4-1-8.06-5.24-9.23q-23-6.35-46.24-12c-5.06-1.24-9.06 2.34-9.5 7.23 0 .4-.07.8-.11 1.21 0 .06-.21 2-.07.78.11-1.06 0 .2-.08.46-.07.47-.15.95-.23 1.43-.3 1.66-.66 3.32-1.09 5-.39 1.48-.84 3-1.35 4.41-.26.75-.56 1.49-.84 2.23-.17.47-.22 1.2.16-.34a8.49 8.49 0 01-.64 1.41 56.24 56.24 0 01-4.33 7.68c-.41.61-.84 1.21-1.28 1.81-.11.15-.46.75-.58.79.43-.15.9-1.13.27-.36-1 1.18-2 2.35-3 3.48a65.93 65.93 0 01-6.08 5.74c-.55.46-1.11.9-1.66 1.35-.76.62 1.2-.87.4-.31-.33.23-.63.48-1 .71-1.14.83-2.3 1.63-3.48 2.41a101 101 0 01-14.34 7.72l-1 .44c-1.22.54 1.23-.49.37-.15l-2 .83q-2 .79-4 1.53c-2.61 1-5.25 1.82-7.91 2.65-2.35.73-4.76 2.67-5.23 5.24-2.05 11-4.19 22-7 32.82-1 3.65-2 7.29-3.29 10.83-.24.65-.49 1.3-.74 1.95-.54 1.38.69-1.52.2-.46-.15.31-.29.64-.43.95a24.4 24.4 0 01-1.6 2.93c-.12.18-.25.35-.36.54-.55.89.95-1.07.68-.88a4.91 4.91 0 00-.8.84c-.64.79 1.92-1.16.6-.5-.58.29 2.31-.7.87-.41-.78.17 2.44-.21 1.44-.21s2 .32 1.5.22c-1.43-.26 1 .49.85.43-1-.42-.5-.88.58.51a9.18 9.18 0 00-.83-.82c-1.16-1.2 1 1.5.28.35-.3-.48-.63-.94-.91-1.44-.64-1.1-1.2-2.25-1.73-3.41-.13-.31-.25-.63-.4-.93.32.65.65 1.6.21.48-.3-.78-.61-1.55-.9-2.33q-1-2.67-1.83-5.39c-3.79-11.85-6.56-24-9.26-36.17-.66-3-4.1-5.75-7.23-5.51a29.67 29.67 0 01-3.13.09c-.52 0-1-.07-1.57-.1-1.7-.11 1.61.31-.48-.06a36.31 36.31 0 01-6.55-1.88c-1.6-.6 1 .49-.24-.1l-1.58-.76c-1.16-.58-2.28-1.2-3.38-1.87s-2.12-1.33-3.14-2c-.6-.42-1.19-.85-1.78-1.28-.14-.1-.89-.67-.13-.09s-.54-.44-.57-.46a97 97 0 01-12.5-12.32c-1-1.15-1.95-2.31-2.89-3.49-.19-.24-1.76-2.28-.86-1.08-.53-.71-1.07-1.42-1.6-2.14q-2.93-4-5.6-8.14a195.28 195.28 0 01-11.52-20.56c-1.39-2.86-5.5-4.4-8.47-3.45l-38.51 12.25-5.49 1.75c-3.74 1.19-6.52 5.27-5.24 9.23 1.18 3.66 5.19 6.43 9.19 5.15z"/><path fill="none" stroke="#000" stroke-miterlimit="10" stroke-width="14" d="M402.25 561.05l199-.5m-199 33l199-.5"/><path d="M440.48 683.55l2-8.72 4.86-20.92 5.86-25.19 5.09-21.88c.82-3.54 1.77-7.08 2.47-10.65v-.14l-7.23 5.5 9 .05 21.48.12 26.1.15 22.47.12c3.65 0 7.32.15 11 .06h.15l-7.23-5.5 1.89 8.66L543 626l5.47 25 4.76 21.76c.77 3.52 1.44 7.09 2.31 10.59a1.24 1.24 0 000 .16c.83 3.83 5.51 6.43 9.22 5.23a7.66 7.66 0 005.24-9.22l-1.89-8.66-4.55-20.8-5.47-25-4.76-21.77c-.77-3.51-1.39-7.11-2.32-10.59v-.15c-.7-3.21-4.07-5.49-7.23-5.51h-9l-21.48-.12-26.1-.14-22.47-.13c-3.65 0-7.33-.17-11-.06h-.15a7.61 7.61 0 00-7.24 5.51l-2 8.71-4.87 20.93-5.85 25.18-5.09 21.89c-.83 3.54-1.71 7.08-2.48 10.64v.15c-.89 3.81 1.18 8.3 5.24 9.22 3.83.88 8.27-1.15 9.22-5.23zm-91.73-264h-36.62c-5.65 0-11.47.42-17.08-.33l2.79.38a25.47 25.47 0 01-6-1.57l2.51 1.06a17 17 0 01-3.68-2.1l2.13 1.64a14.28 14.28 0 01-2.39-2.4l1.64 2.13a13.66 13.66 0 01-1.61-2.8l1.06 2.51a14.74 14.74 0 01-.93-3.52l.38 2.79a18.41 18.41 0 010-4.69l-.37 2.79a25.49 25.49 0 011.83-6.46l-1.06 2.51a33.5 33.5 0 014.24-7.18l-1.59 2.12a38 38 0 016.63-6.66l-2.12 1.65c3.13-2.42 6.44-4.63 9.7-6.86 5.81-4 11.66-7.86 17.51-11.75q11.61-7.72 23.29-15.38 13.5-8.88 27-17.71 14.4-9.41 28.81-18.77l28.56-18.53q13.13-8.52 26.28-17l22-14.21 15.65-10.1c2.48-1.6 5-3.18 7.43-4.79l.31-.2a11.07 11.07 0 004.82-6.27 10.72 10.72 0 00-1.05-8.09 10.5 10.5 0 00-14.37-3.76l-8.38 5.4-22.19 14.3q-15.81 10.2-31.61 20.44Q414 300 395.66 311.89 377 324 358.44 336.14q-16.72 10.94-33.44 21.94c-8.43 5.57-16.85 11.15-25.21 16.82-5.6 3.81-11.62 7.53-16.59 12.16a45.23 45.23 0 00-8.46 10.72 35.84 35.84 0 00-4.39 11.86c-.73 4.68-.9 9.51.86 14a24.3 24.3 0 0010.33 12.49c4.95 2.94 10.76 4.06 16.44 4.36 6.46.33 13 .05 19.48.05h31.26a10.83 10.83 0 007.42-3.07 10.5 10.5 0 00-7.42-17.93z"/><path d="M651.25 440.55H693c3.1 0 6.23.12 9.32-.07 5.63-.34 11.43-1.47 16.3-4.46a24.44 24.44 0 0010.2-12.55c1.72-4.51 1.52-9.38.76-14.05a35.73 35.73 0 00-4.49-11.86A49.61 49.61 0 00711 382.43c-2.1-1.55-4.26-3-6.41-4.52-7.45-5.13-15-10.14-22.53-15.14q-15.87-10.53-31.81-20.95-18.33-12-36.7-23.94-18.55-12.09-37.17-24.14l-33.24-21.51-24.9-16.08-12.16-7.84-.53-.34c-4.63-3-11.8-1.1-14.37 3.77A10.73 10.73 0 00495 266.1l5.07 3.27 13.87 8.95 20.66 13.34 25.4 16.46q14.1 9.13 28.19 18.28 14.48 9.41 28.93 18.83 13.85 9 27.67 18.09 12.21 8 24.38 16.06 9.54 6.31 19 12.71c4 2.68 8 5.36 11.83 8.19.51.37 1 .75 1.52 1.14l-2.12-1.65a38 38 0 016.63 6.66l-1.65-2.12a33.5 33.5 0 014.24 7.18l-1.05-2.49a25.49 25.49 0 011.83 6.46l-.37-2.79a18.41 18.41 0 010 4.69l.38-2.79a14.74 14.74 0 01-.93 3.52l1.06-2.51a13.66 13.66 0 01-1.61 2.8l1.64-2.13a14.28 14.28 0 01-2.39 2.4l2.13-1.64a17 17 0 01-3.68 2.1l2.51-1.06a25.47 25.47 0 01-6 1.57l2.79-.38c-4.87.65-9.87.33-14.77.33h-38.91a10.8 10.8 0 00-7.42 3.08 10.49 10.49 0 007.42 17.92z"/><path d="M507.41 248.3c-6.81-6.29-13.08-13.24-19.42-20q-3.36-3.56-6.69-7.15c-2.54-2.73-5.2-5.4-7.5-8.34l1.64 2.12a36.58 36.58 0 01-4.7-7.95l1.06 2.51a31.46 31.46 0 01-2.1-7.68l.38 2.79a31.32 31.32 0 010-8.15l-.37 2.79a35.08 35.08 0 012.39-8.58l-1.05 2.51a40.41 40.41 0 015.11-8.67l-1.64 2.12a42.83 42.83 0 017.36-7.38l-2.13 1.64a37.14 37.14 0 018-4.72l-2.5 1.06a26.58 26.58 0 016.67-1.87l-2.79.37a33.84 33.84 0 018.53.2l-2.79-.37a42 42 0 0110.51 2.81l-2.51-1.06a37.56 37.56 0 018.07 4.68l-2.13-1.64a36.52 36.52 0 016.35 6.32l-1.64-2.12a40 40 0 015.2 9l-1.09-2.54a52.59 52.59 0 013.42 13l-.38-2.79a76.09 76.09 0 01.58 11.88c-.14 5.5 4.93 10.75 10.5 10.5a10.7 10.7 0 0010.5-10.5c.24-9.27-.81-19-4.37-27.61-3.12-7.58-7.53-14.65-14-19.78a49 49 0 00-20.12-9.79c-7.3-1.55-15.19-2.07-22.34.44-16.59 5.8-29.73 21.25-32.08 38.75a41.08 41.08 0 006.42 28.28c3.34 5 7.57 9.27 11.64 13.64q4.56 4.89 9.15 9.75c5.2 5.49 10.36 11.13 15.91 16.27l.15.15a11 11 0 007.43 3.07 10.49 10.49 0 007.42-17.92z"/></svg>