<svg data-name="Layer 1" xmlns="http://www.w3.org/2000/svg" viewBox="0 0 1000 1000"><path d="M0 0h1000v1000H0z"/><path d="M748.62 609.82a9 9 0 00-9.84 2L640 710.52a9 9 0 006.42 15.48h98.75a9 9 0 009-9v-98.83a9 9 0 00-5.55-8.35zm-80.39 98.06l67.9-67.9v67.9z" fill="#fff"/><path d="M800.94 464a9 9 0 00-9.84 2L764 493V309a9 9 0 00-9-9h-69.43l25.2-25.2 24.28-24.28a27.55 27.55 0 000-39L707 183.44a27.55 27.55 0 00-39 0l-24.3 24.29-29.36 29.36L551.49 300H271v-89.41a9 9 0 00-9-9 71.15 71.15 0 00-71.06 71.07v383.73a8.81 8.81 0 00.21 1.94 68.42 68.42 0 0068.23 63.24h276.09l-52 52a9 9 0 006.39 15.43h307.62a9 9 0 009-9V472.34a9 9 0 00-5.54-8.34zM680.81 196.22a9.48 9.48 0 0113.4 0l28.08 28.08a9.49 9.49 0 010 13.41l-17.9 17.9-41.49-41.49zm-30.69 30.68l41.49 41.49L675 285l-41.49-41.49zm138.33 347h-16.67a9 9 0 000 18.07h16.67v27.23h-16.67a9 9 0 000 18.07h16.67v27.23h-16.67a9 9 0 000 18.07h16.67v27.23h-16.67a9 9 0 000 18.07h16.67v43.09H511.67l91.27-91.26a9 9 0 000-12.78 8.69 8.69 0 00-1.3-1.07 9 9 0 00-11.48 1.07l-36.62 36.62H259.36A50.09 50.09 0 01209 654.76c.05-1.72.19-3.42.4-5.11.1-.79.23-1.59.36-2.38a2.56 2.56 0 00.05-.27c.13-.71.27-1.41.43-2.11 0-.19.08-.39.13-.58.14-.59.29-1.18.44-1.77l.27-1c.14-.45.27-.91.42-1.37s.3-.9.46-1.35.21-.62.33-.94c.22-.59.46-1.17.7-1.75.06-.17.13-.34.2-.51.31-.72.63-1.43 1-2.14a.36.36 0 000-.09 53.2 53.2 0 0137-28.91h.13c.75-.15 1.51-.28 2.27-.4l.41-.08c.68-.1 1.38-.19 2.07-.26a5.93 5.93 0 01.59-.07c.66-.07 1.34-.12 2-.16h.64c.88 0 1.78-.06 2.67-.06a9 9 0 009-9v-65.6a9 9 0 10-18.07 0v57a70.61 70.61 0 00-40.59 19.64 66.362 66.362 0 00-3.37 3.56V272.62a53.09 53.09 0 0143.95-52.23V492.7a9 9 0 0018.08 0V318.05h262.4L483.47 368a9 9 0 0012.77 12.78l65.38-65.38 59.13-59.14 41.49 41.49-4.87 4.86-182.19 182.21-41.49-41.49 35.91-35.91a9 9 0 10-12.77-12.78l-42.31 42.3c-.22.23-.43.47-.63.71a2.48 2.48 0 00-.19.26l-.37.51-.19.32c-.1.17-.19.34-.28.51s-.11.23-.16.35-.16.36-.23.54l-.07.18-17.61 49.87-12 34a9.66 9.66 0 00-.36 1.38h-30.05a9 9 0 000 18.07h250.23a9 9 0 000-18.07H423.08l55.11-19.45.13-.06.63-.26.25-.12c.22-.11.43-.23.64-.35l.2-.12c.22-.14.43-.3.64-.46l.15-.11a7.6 7.6 0 00.74-.66L667.5 318.05H746v193L616.71 640.33a9 9 0 000 12.78 8 8 0 00.69.62 9 9 0 0011.41 0c.23-.19.46-.4.68-.62l159-159zm-329.8-80l-25.88 9.1-17.24-17.24 9.13-25.88z" fill="#fff"/></svg>