<svg data-name="Layer 1" xmlns="http://www.w3.org/2000/svg" viewBox="0 0 1000 1000"><path d="M747.34 610a9 9 0 00-9.85 2l-98.74 98.74a9 9 0 006.39 15.43h98.74a9 9 0 009-9v-98.8a9 9 0 00-5.54-8.37zM667 708.08l67.9-67.9v67.9z"/><path d="M799.66 464.19a9 9 0 00-9.85 2l-27.06 27.06v-184a9 9 0 00-9-9h-69.46l25.2-25.2 24.29-24.29a27.57 27.57 0 000-39l-28.08-28.08a27.56 27.56 0 00-39 0l-24.29 24.3-29.36 29.35-62.88 62.89H269.74v-89.43a9 9 0 00-9-9 71.15 71.15 0 00-71.07 71.07V656.6a8.94 8.94 0 00.22 1.94 68.44 68.44 0 0068.23 63.24h276.07l-52 52a9 9 0 006.39 15.42H796.2a9 9 0 009-9V472.54a9 9 0 00-5.54-8.35zM679.52 196.42a9.49 9.49 0 0113.41 0L721 224.5a9.49 9.49 0 010 13.41l-17.9 17.9-41.49-41.48zm-30.68 30.68l41.49 41.49-16.58 16.58-41.49-41.49zm138.33 347H770.5a9 9 0 100 18.07h16.67v27.23H770.5a9 9 0 100 18.07h16.67v27.23H770.5a9 9 0 100 18.07h16.67V710H770.5a9 9 0 100 18.07h16.67v43.1H510.39l91.27-91.27a9 9 0 000-12.78 8.69 8.69 0 00-1.3-1.07 9 9 0 00-11.48 1.07l-36.62 36.62H258.08a47.66 47.66 0 01-49.93-53.85c.1-.8.22-1.6.36-2.39a2.56 2.56 0 00.05-.27c.13-.71.27-1.41.42-2.11.05-.19.09-.39.14-.58.14-.59.28-1.18.44-1.77l.27-.94c.13-.46.27-.92.42-1.37s.3-.91.45-1.35.22-.63.34-.94c.22-.59.45-1.18.69-1.76l.21-.5c.31-.73.63-1.44 1-2.14v-.09a53.21 53.21 0 0137-28.92h.14c.75-.15 1.5-.28 2.26-.4l.39-.07c.68-.1 1.38-.18 2.07-.26l.58-.07c.67-.07 1.35-.11 2-.16h.65c.88 0 1.77-.07 2.67-.07a9 9 0 009-9v-65.68a9 9 0 00-18.08 0v57.05a70.53 70.53 0 00-40.58 19.64c-1.18 1.14-2.29 2.34-3.38 3.55V272.82a53.08 53.08 0 0144-52.22v272.31a9 9 0 0018.07 0V318.25h262.41l-50 49.95A9 9 0 10495 381l65.38-65.38 59.14-59.14L661 298l-4.87 4.87L473.9 485l-41.49-41.49 35.91-35.91a9 9 0 00-12.77-12.78l-42.31 42.3c-.22.23-.43.47-.63.71l-.19.26c-.13.17-.25.34-.37.52s-.13.21-.19.31-.19.34-.28.52a3.54 3.54 0 00-.16.34c-.08.18-.16.36-.23.54s-.05.12-.08.19l-17.6 49.86-12 34a9.53 9.53 0 00-.36 1.37h-30a9 9 0 000 18.07h250.18a9 9 0 000-18.07H421.8l55.1-19.45.14-.06.63-.26.25-.12a6.74 6.74 0 00.64-.35l.2-.12c.22-.14.43-.29.64-.45l.15-.12a8.93 8.93 0 00.73-.65l185.94-185.91h78.46v193L615.43 640.53a9 9 0 000 12.78 8 8 0 00.69.62 9 9 0 0011.4 0 8 8 0 00.69-.62l159-159zm-329.8-80l-25.88 9.13-17.25-17.24 9.14-25.88z"/></svg>